<svg width="483" height="339" viewBox="0 0 483 339" fill="none" xmlns="http://www.w3.org/2000/svg">
<g filter="url(#filter0_d_1278_10227)">
<g style="mix-blend-mode:screen" opacity="0.5">
<path d="M124.734 327.104H25.1818L11.7236 313.659V11.7217H470.309V280.986L437.022 314.24H137.63L124.734 327.124V327.104ZM25.9951 325.17H123.94L136.836 312.286H436.247L468.392 280.173V13.6562H13.6601V312.866L25.9951 325.189V325.17Z" fill="#643ADE"/>
</g>
<g style="mix-blend-mode:screen" opacity="0.5">
<path d="M15.3833 12.689C15.3833 14.1785 14.1827 15.3779 12.6916 15.3779C11.2006 15.3779 10 14.1785 10 12.689C10 11.1994 11.2006 10 12.6916 10C14.1827 10 15.3833 11.1994 15.3833 12.689Z" fill="#51486D"/>
</g>
<g style="mix-blend-mode:screen" opacity="0.5">
<path d="M439.655 313.253C439.655 314.742 438.454 315.942 436.963 315.942C435.472 315.942 434.271 314.742 434.271 313.253C434.271 311.763 435.472 310.564 436.963 310.564C438.454 310.564 439.655 311.763 439.655 313.253Z" fill="#51486D"/>
</g>
<g style="mix-blend-mode:screen" opacity="0.5">
<path d="M140.225 313.253C140.225 314.742 139.024 315.942 137.533 315.942C136.042 315.942 134.842 314.742 134.842 313.253C134.842 311.763 136.042 310.564 137.533 310.564C139.024 310.564 140.225 311.763 140.225 313.253Z" fill="#51486D"/>
</g>
<g style="mix-blend-mode:screen" opacity="0.5">
<path d="M127.173 326.311C127.173 327.801 125.973 329 124.482 329C122.991 329 121.79 327.801 121.79 326.311C121.79 324.821 122.991 323.622 124.482 323.622C125.973 323.622 127.173 324.821 127.173 326.311Z" fill="#51486D"/>
</g>
<g style="mix-blend-mode:screen" opacity="0.5">
<path d="M28.5512 326.311C28.5512 327.801 27.3507 329 25.8596 329C24.3686 329 23.168 327.801 23.168 326.311C23.168 324.821 24.3686 323.622 25.8596 323.622C27.3507 323.622 28.5512 324.821 28.5512 326.311Z" fill="#51486D"/>
</g>
<g style="mix-blend-mode:screen" opacity="0.5">
<path d="M15.4409 313.214C15.4409 314.704 14.2403 315.903 12.7493 315.903C11.2582 315.903 10.0576 314.704 10.0576 313.214C10.0576 311.725 11.2582 310.525 12.7493 310.525C14.2403 310.525 15.4409 311.725 15.4409 313.214Z" fill="#51486D"/>
</g>
<g style="mix-blend-mode:screen" opacity="0.5">
<path d="M472.033 281.121C472.033 282.611 470.832 283.81 469.341 283.81C467.85 283.81 466.649 282.611 466.649 281.121C466.649 279.632 467.85 278.432 469.341 278.432C470.832 278.432 472.033 279.632 472.033 281.121Z" fill="#51486D"/>
</g>
<g style="mix-blend-mode:screen" opacity="0.5">
<path d="M472.033 12.689C472.033 14.1785 470.832 15.3779 469.341 15.3779C467.85 15.3779 466.649 14.1785 466.649 12.689C466.649 11.1994 467.85 10 469.341 10C470.832 10 472.033 11.1994 472.033 12.689Z" fill="#51486D"/>
</g>
<g style="mix-blend-mode:screen" opacity="0.1">
<path d="M460.627 21.3943V276.981L433.013 304.567H133.622L133.331 304.857L120.725 317.451H29.1902L21.4057 309.674V21.3943H460.627ZM461.595 20.427H20.4375V310.061L28.8029 318.418H121.132L134.029 305.534H433.44L461.615 277.387V20.427H461.595Z" fill="#4DFFFF"/>
</g>
</g>
<defs>
<filter id="filter0_d_1278_10227" x="0" y="0" width="482.032" height="339" filterUnits="userSpaceOnUse" color-interpolation-filters="sRGB">
<feFlood flood-opacity="0" result="BackgroundImageFix"/>
<feColorMatrix in="SourceAlpha" type="matrix" values="0 0 0 0 0 0 0 0 0 0 0 0 0 0 0 0 0 0 127 0" result="hardAlpha"/>
<feOffset/>
<feGaussianBlur stdDeviation="5"/>
<feColorMatrix type="matrix" values="0 0 0 0 0.45098 0 0 0 0 0.94902 0 0 0 0 1 0 0 0 0.4 0"/>
<feBlend mode="normal" in2="BackgroundImageFix" result="effect1_dropShadow_1278_10227"/>
<feBlend mode="normal" in="SourceGraphic" in2="effect1_dropShadow_1278_10227" result="shape"/>
</filter>
</defs>
</svg>
