<svg width="17" height="17" viewBox="0 0 17 17" fill="none" xmlns="http://www.w3.org/2000/svg">
<path d="M14.337 3.67229C13.2633 3.17963 12.1119 2.81667 10.9081 2.60878C10.8862 2.60477 10.8643 2.6148 10.853 2.63485C10.7049 2.89822 10.5409 3.2418 10.426 3.51185C9.13121 3.31801 7.84306 3.31801 6.57481 3.51185C6.45993 3.23579 6.28995 2.89822 6.14121 2.63485C6.12992 2.61547 6.10802 2.60544 6.0861 2.60878C4.88293 2.816 3.73157 3.17897 2.65721 3.67229C2.64791 3.6763 2.63994 3.68299 2.63465 3.69167C0.450745 6.95438 -0.147518 10.1369 0.14597 13.2799C0.147298 13.2953 0.15593 13.31 0.167882 13.3194C1.60876 14.3775 3.0045 15.0199 4.37431 15.4457C4.39624 15.4524 4.41946 15.4444 4.43341 15.4263C4.75745 14.9838 5.04629 14.5172 5.29395 14.0266C5.30856 13.9979 5.29461 13.9638 5.26474 13.9524C4.80658 13.7786 4.37033 13.5667 3.95068 13.3261C3.91749 13.3067 3.91483 13.2592 3.94536 13.2365C4.03367 13.1703 4.12201 13.1014 4.20633 13.0319C4.22159 13.0192 4.24284 13.0166 4.26078 13.0246C7.01769 14.2833 10.0024 14.2833 12.7267 13.0246C12.7447 13.0159 12.7659 13.0186 12.7819 13.0313C12.8662 13.1008 12.9545 13.1703 13.0435 13.2365C13.074 13.2592 13.072 13.3067 13.0388 13.3261C12.6192 13.5714 12.1829 13.7786 11.7241 13.9517C11.6942 13.9631 11.681 13.9979 11.6956 14.0266C11.9485 14.5166 12.2374 14.9831 12.5554 15.4257C12.5687 15.4444 12.5926 15.4524 12.6145 15.4457C13.991 15.0199 15.3867 14.3775 16.8276 13.3194C16.8402 13.31 16.8482 13.296 16.8495 13.2806C17.2008 9.64689 16.2612 6.49048 14.3589 3.69234C14.3542 3.68299 14.3463 3.6763 14.337 3.67229ZM5.70565 11.3662C4.87563 11.3662 4.19171 10.6041 4.19171 9.66829C4.19171 8.73245 4.86236 7.97043 5.70565 7.97043C6.55555 7.97043 7.23284 8.73914 7.21955 9.66829C7.21955 10.6041 6.5489 11.3662 5.70565 11.3662ZM11.3031 11.3662C10.4731 11.3662 9.78923 10.6041 9.78923 9.66829C9.78923 8.73245 10.4599 7.97043 11.3031 7.97043C12.1531 7.97043 12.8303 8.73914 12.8171 9.66829C12.8171 10.6041 12.1531 11.3662 11.3031 11.3662Z" fill="white"/>
</svg>
