<svg width="64" height="46" viewBox="0 0 64 46" fill="none" xmlns="http://www.w3.org/2000/svg">
<path fill-rule="evenodd" clip-rule="evenodd" d="M63.3468 10.204C63.3468 10.204 62.722 5.7925 60.7991 3.8555C58.3625 1.3078 55.6341 1.2913 54.3868 1.1437C45.4375 0.491699 31.9964 0.491699 31.9964 0.491699H31.9728C31.9728 0.491699 18.5376 0.491699 9.58348 1.1437C8.33148 1.296 5.60668 1.3067 3.17118 3.8555C1.24718 5.7925 0.635379 10.204 0.635379 10.204C0.635379 10.204 -0.0012207 15.3808 -0.0012207 20.5683V25.4192C-0.0012207 30.596 0.635379 35.7835 0.635379 35.7835C0.635379 35.7835 1.26018 40.1949 3.17118 42.1355C5.60668 44.6832 8.80748 44.6005 10.2367 44.8722C15.3604 45.3612 32.0011 45.5088 32.0011 45.5088C32.0011 45.5088 45.454 45.4851 54.4033 44.845C55.6553 44.6973 58.3789 44.682 60.8156 42.1331C62.7396 40.1961 63.3632 35.7799 63.3632 35.7799C63.3632 35.7799 64 30.6032 64 25.4156V20.5648C63.987 15.3879 63.3503 10.2005 63.3503 10.2005L63.3468 10.204ZM25.3668 31.3047V13.3175L42.656 22.3412L25.3668 31.3047Z" fill="white"/>
</svg>
