<svg width="30" height="30" viewBox="0 0 30 30" fill="none" xmlns="http://www.w3.org/2000/svg">
    <path
        d="M9.36719 22.1545C9.36719 22.1545 9.36719 18.8347 9.36719 17.1451C10.2565 16.2557 11.2516 15.2775 12.141 14.3882C13.1192 14.3882 16.8792 14.3882 17.8575 14.3882C18.7468 15.2775 19.7419 16.2557 20.6312 17.1451C20.6312 18.8347 20.6312 22.1545 20.6312 22.1545"
        stroke="#FF6961" stroke-width="1.5" stroke-miterlimit="10" />
    <path
        d="M15.0018 12.2066C16.3662 12.2066 17.4723 11.1006 17.4723 9.73613C17.4723 8.37171 16.3662 7.26562 15.0018 7.26562C13.6373 7.26562 12.5312 8.37171 12.5312 9.73613C12.5312 11.1006 13.6373 12.2066 15.0018 12.2066Z"
        stroke="#FF6961" stroke-width="1.5" stroke-miterlimit="10" />
    <path
        d="M23.3672 16.1099C24.8701 16.1099 25.4535 16.1099 26.2254 16.1099C27.1148 16.9992 28.1099 17.9774 28.9992 18.8667C28.9992 20.5564 28.9992 22.1545 28.9992 22.1545"
        stroke="#FF6961" stroke-width="1.5" stroke-miterlimit="10" />
    <path
        d="M23.3611 13.8822C24.7256 13.8822 25.8316 12.7761 25.8316 11.4117C25.8316 10.0472 24.7256 8.94116 23.3611 8.94116C21.9967 8.94116 20.8906 10.0472 20.8906 11.4117C20.8906 12.7761 21.9967 13.8822 23.3611 13.8822Z"
        stroke="#FF6961" stroke-width="1.5" stroke-miterlimit="10" />
    <path
        d="M6.63202 16.1099C5.12908 16.1099 4.54569 16.1099 3.77377 16.1099C2.88445 16.9992 1.88931 17.9774 1 18.8667C1 20.5564 1 22.1545 1 22.1545"
        stroke="#FF6961" stroke-width="1.5" stroke-miterlimit="10" />
    <path
        d="M6.65801 13.8822C8.02243 13.8822 9.12852 12.7761 9.12852 11.4117C9.12852 10.0472 8.02243 8.94116 6.65801 8.94116C5.29359 8.94116 4.1875 10.0472 4.1875 11.4117C4.1875 12.7761 5.29359 13.8822 6.65801 13.8822Z"
        stroke="#FF6961" stroke-width="1.5" stroke-miterlimit="10" />
</svg>