<svg width="650" height="603" viewBox="0 0 650 603" fill="none" xmlns="http://www.w3.org/2000/svg">
<path opacity="0.6" fill-rule="evenodd" clip-rule="evenodd" d="M175.679 156.766C175.534 156.481 175.724 156.094 176.104 155.9C176.484 155.707 176.909 155.781 177.054 156.066C177.199 156.35 177.009 156.738 176.629 156.931C176.25 157.125 175.824 157.051 175.679 156.766ZM206.501 157.153C206.446 157.359 206.234 157.481 206.028 157.426C205.823 157.371 205.701 157.159 205.756 156.954C205.811 156.748 206.022 156.626 206.228 156.681C206.434 156.736 206.556 156.948 206.501 157.153ZM238.544 160.386C238.651 160.57 238.887 160.633 239.071 160.527C239.256 160.42 239.319 160.185 239.212 160C239.106 159.816 238.87 159.752 238.686 159.859C238.501 159.965 238.438 160.201 238.544 160.386ZM412.284 202.044C412.552 201.951 412.938 202.366 413.146 202.97C413.354 203.574 413.305 204.139 413.037 204.232C412.768 204.324 412.382 203.909 412.174 203.305C411.966 202.701 412.015 202.136 412.284 202.044ZM329.152 350.471C329.615 350.595 329.856 351.196 329.69 351.813C329.525 352.43 329.016 352.83 328.553 352.706C328.09 352.582 327.849 351.981 328.014 351.364C328.18 350.747 328.689 350.347 329.152 350.471ZM277.831 386.742C278.023 386.835 278.027 387.221 277.84 387.604C277.653 387.987 277.347 388.221 277.155 388.128C276.964 388.035 276.96 387.649 277.147 387.266C277.333 386.883 277.64 386.648 277.831 386.742ZM284.301 214.221C283.72 214.844 283.754 215.82 284.377 216.401C285 216.982 285.976 216.948 286.557 216.325C287.138 215.702 287.104 214.726 286.481 214.145C285.858 213.564 284.882 213.598 284.301 214.221ZM462.337 353.337C462.72 353.059 463.436 353.392 463.937 354.082C464.438 354.771 464.533 355.555 464.15 355.833C463.767 356.111 463.051 355.778 462.55 355.089C462.05 354.4 461.954 353.616 462.337 353.337ZM229.223 372.059C229.399 371.445 229.044 370.805 228.43 370.628C227.815 370.452 227.175 370.808 226.999 371.422C226.822 372.036 227.178 372.677 227.792 372.853C228.406 373.029 229.047 372.674 229.223 372.059ZM305.208 198.577C305.589 198.897 305.564 199.553 305.153 200.042C304.743 200.532 304.101 200.669 303.721 200.35C303.34 200.031 303.364 199.375 303.775 198.885C304.186 198.396 304.827 198.258 305.208 198.577ZM358.498 355.104C359.35 355.134 360.054 354.756 360.071 354.259C360.089 353.762 359.413 353.336 358.561 353.306C357.71 353.276 357.005 353.655 356.988 354.151C356.971 354.648 357.647 355.075 358.498 355.104ZM128.214 251.524C128.311 251.334 128.543 251.258 128.733 251.355C128.923 251.452 128.998 251.684 128.902 251.874C128.805 252.064 128.573 252.139 128.383 252.042C128.193 251.946 128.118 251.713 128.214 251.524ZM395.595 233.983C395.21 233.473 394.567 233.309 394.159 233.616C393.751 233.924 393.732 234.587 394.116 235.097C394.501 235.607 395.143 235.772 395.552 235.464C395.96 235.156 395.979 234.493 395.595 233.983ZM490.451 230.527C490.865 230.424 491.367 231.011 491.573 231.837C491.779 232.664 491.611 233.417 491.198 233.521C490.784 233.624 490.282 233.037 490.076 232.21C489.87 231.384 490.038 230.63 490.451 230.527ZM257.103 259.431C257.192 259.847 257.568 260.121 257.943 260.041C258.318 259.961 258.55 259.559 258.461 259.142C258.373 258.726 257.997 258.452 257.622 258.532C257.247 258.612 257.015 259.014 257.103 259.431ZM484.602 191.366C484.147 191.422 483.694 190.782 483.59 189.936C483.486 189.091 483.771 188.36 484.226 188.304C484.682 188.248 485.135 188.888 485.239 189.734C485.343 190.579 485.058 191.31 484.602 191.366ZM366.377 197.403C365.754 196.822 364.974 196.646 364.635 197.009C364.296 197.373 364.526 198.139 365.149 198.72C365.735 199.266 366.46 199.455 366.826 199.173C366.833 199.406 366.913 199.583 367.049 199.619C367.254 199.674 367.51 199.386 367.621 198.974C367.731 198.563 367.654 198.184 367.448 198.129C367.307 198.092 367.143 198.215 367.018 198.428C366.941 198.095 366.718 197.722 366.377 197.403ZM501.955 223.409C502.519 223.109 503.219 223.323 503.519 223.887C503.819 224.451 503.605 225.152 503.041 225.452C502.477 225.752 501.776 225.537 501.476 224.973C501.176 224.409 501.391 223.709 501.955 223.409ZM319.683 340.488C319.903 341.311 320.415 341.889 320.827 341.778C321.238 341.668 321.393 340.912 321.173 340.089C320.952 339.266 320.44 338.688 320.028 338.798C319.617 338.909 319.462 339.665 319.683 340.488ZM436.366 323.503C436.167 323.209 436.293 322.777 436.646 322.539C436.999 322.301 437.446 322.346 437.645 322.641C437.843 322.935 437.718 323.367 437.365 323.605C437.011 323.843 436.564 323.797 436.366 323.503ZM368.62 381.204C369.102 381.623 369.682 381.746 369.914 381.478C370.147 381.21 369.945 380.653 369.463 380.234C368.981 379.815 368.401 379.692 368.168 379.96C367.935 380.228 368.137 380.785 368.62 381.204ZM338.299 283.723C338.506 283.671 338.631 283.462 338.58 283.256C338.528 283.049 338.319 282.923 338.112 282.975C337.906 283.026 337.78 283.235 337.832 283.442C337.883 283.649 338.092 283.775 338.299 283.723ZM349.537 369.403C349.809 369.158 350.26 369.217 350.545 369.533C350.83 369.85 350.841 370.305 350.569 370.549C350.298 370.793 349.847 370.735 349.562 370.418C349.277 370.102 349.266 369.647 349.537 369.403ZM142.948 338.783C142.537 338.672 142.134 338.843 142.048 339.163C141.962 339.483 142.226 339.831 142.638 339.942C143.049 340.052 143.452 339.882 143.538 339.562C143.624 339.242 143.36 338.893 142.948 338.783ZM131.773 258.982C132.472 258.859 133.159 259.439 133.307 260.278C133.455 261.117 133.008 261.897 132.309 262.021C131.61 262.144 130.923 261.564 130.775 260.725C130.627 259.886 131.074 259.106 131.773 258.982ZM282.286 229.974C282.33 229.124 281.849 228.407 281.211 228.373C280.573 228.34 280.02 229.002 279.975 229.853C279.931 230.704 280.412 231.421 281.05 231.454C281.688 231.488 282.241 230.825 282.286 229.974ZM418.724 219.005C418.724 219.404 418.206 219.728 417.567 219.728C416.928 219.728 416.41 219.404 416.41 219.005C416.41 218.606 416.928 218.282 417.567 218.282C418.206 218.282 418.724 218.606 418.724 219.005ZM135.227 314.355C134.714 315.035 134.535 315.765 134.826 315.985C135.118 316.204 135.77 315.831 136.283 315.15C136.795 314.47 136.975 313.74 136.683 313.521C136.391 313.301 135.739 313.674 135.227 314.355ZM105.381 199.92C105.127 199.422 105.383 198.783 105.952 198.493C106.522 198.203 107.189 198.371 107.443 198.87C107.697 199.368 107.441 200.007 106.872 200.297C106.302 200.587 105.635 200.418 105.381 199.92ZM470.056 401.329C470.491 400.862 470.579 400.236 470.252 399.93C469.925 399.625 469.307 399.757 468.871 400.224C468.435 400.692 468.347 401.318 468.674 401.623C469.001 401.928 469.62 401.796 470.056 401.329ZM507.144 380.949C507.044 381.137 506.811 381.208 506.623 381.108C506.435 381.008 506.363 380.775 506.464 380.587C506.563 380.399 506.797 380.327 506.985 380.427C507.173 380.527 507.244 380.761 507.144 380.949ZM107.946 350.128C107.521 350.106 107.167 350.261 107.156 350.473C107.144 350.686 107.48 350.876 107.906 350.899C108.331 350.921 108.685 350.767 108.696 350.554C108.707 350.341 108.371 350.151 107.946 350.128ZM261.666 215.855C261.359 216.15 260.751 216.018 260.307 215.558C259.863 215.098 259.752 214.486 260.058 214.19C260.365 213.894 260.973 214.027 261.417 214.487C261.861 214.946 261.972 215.559 261.666 215.855ZM217.341 320.364C217.734 319.86 217.713 319.187 217.294 318.859C216.874 318.531 216.215 318.673 215.822 319.177C215.428 319.68 215.45 320.354 215.869 320.682C216.289 321.01 216.948 320.867 217.341 320.364ZM353.707 254.838C354.003 255.105 353.897 255.707 353.47 256.182C353.042 256.657 352.455 256.825 352.158 256.558C351.862 256.29 351.968 255.689 352.395 255.214C352.823 254.739 353.41 254.571 353.707 254.838ZM141.403 172.75C141.519 172.929 141.758 172.979 141.936 172.863C142.115 172.747 142.166 172.508 142.05 172.33C141.934 172.151 141.695 172.1 141.516 172.216C141.338 172.332 141.287 172.571 141.403 172.75ZM542.914 205.631C542.924 205.063 543.622 204.615 544.474 204.63C545.326 204.645 546.008 205.117 545.998 205.685C545.988 206.253 545.29 206.701 544.438 206.686C543.586 206.671 542.904 206.199 542.914 205.631ZM311.39 336.271C311.816 337.009 312.536 337.391 312.997 337.125C313.458 336.859 313.486 336.045 313.06 335.307C312.634 334.569 311.915 334.187 311.454 334.453C310.993 334.72 310.965 335.533 311.39 336.271ZM346.985 230.689C346.584 231.025 345.927 230.901 345.516 230.411C345.105 229.922 345.097 229.253 345.498 228.917C345.898 228.581 346.556 228.705 346.966 229.194C347.377 229.684 347.385 230.353 346.985 230.689ZM188.628 381.84C188.782 381.988 189.026 381.984 189.174 381.831C189.322 381.678 189.317 381.433 189.164 381.286C189.011 381.138 188.767 381.142 188.619 381.295C188.471 381.448 188.475 381.692 188.628 381.84ZM436.152 232.179C436.296 231.855 436.886 231.802 437.47 232.062C438.054 232.322 438.41 232.796 438.265 233.12C438.121 233.444 437.531 233.496 436.947 233.237C436.363 232.977 436.007 232.503 436.152 232.179ZM179.496 287.431C179.807 287.721 180.217 287.789 180.41 287.581C180.604 287.373 180.508 286.969 180.197 286.679C179.885 286.388 179.476 286.321 179.282 286.529C179.088 286.737 179.184 287.14 179.496 287.431ZM419.924 347.028C419.377 346.999 418.961 346.459 418.994 345.821C419.028 345.183 419.498 344.689 420.045 344.717C420.592 344.746 421.008 345.286 420.975 345.924C420.941 346.562 420.471 347.057 419.924 347.028ZM106.173 349.358C106.662 348.948 106.781 348.284 106.439 347.876C106.097 347.468 105.423 347.471 104.933 347.881C104.444 348.292 104.324 348.956 104.667 349.364C105.009 349.771 105.683 349.769 106.173 349.358ZM422.099 247.867C422.198 247.563 422.771 247.477 423.378 247.675C423.986 247.872 424.399 248.278 424.3 248.582C424.201 248.886 423.628 248.972 423.021 248.775C422.413 248.577 422.001 248.171 422.099 247.867ZM452.434 276.748C452.375 275.898 451.835 275.244 451.228 275.286C450.621 275.329 450.177 276.052 450.236 276.902C450.296 277.752 450.836 278.406 451.443 278.364C452.05 278.321 452.494 277.598 452.434 276.748ZM301.054 299.664C301.239 299.771 301.216 300.156 301.003 300.525C300.79 300.894 300.468 301.107 300.283 301C300.099 300.894 300.122 300.508 300.335 300.139C300.548 299.77 300.87 299.558 301.054 299.664ZM181.621 259.317C181.348 258.991 180.914 258.904 180.653 259.123C180.392 259.342 180.402 259.784 180.676 260.11C180.95 260.437 181.383 260.524 181.645 260.305C181.906 260.086 181.895 259.644 181.621 259.317ZM151.527 187.978C151.806 188.3 152.222 188.396 152.456 188.192C152.69 187.989 152.653 187.564 152.373 187.242C152.094 186.921 151.678 186.825 151.444 187.028C151.21 187.231 151.247 187.657 151.527 187.978ZM131.142 202.771C131.342 202.699 131.563 202.802 131.636 203.002C131.709 203.202 131.605 203.423 131.405 203.496C131.205 203.569 130.984 203.466 130.911 203.266C130.838 203.065 130.941 202.844 131.142 202.771ZM336.83 311.574C336.816 311.999 337.001 312.351 337.244 312.36C337.487 312.368 337.697 312.03 337.711 311.604C337.726 311.179 337.541 310.827 337.298 310.818C337.055 310.81 336.845 311.148 336.83 311.574ZM179.446 269.122C179.689 269.014 180.027 269.242 180.2 269.631C180.373 270.02 180.316 270.423 180.073 270.532C179.83 270.64 179.492 270.412 179.319 270.023C179.146 269.634 179.203 269.231 179.446 269.122ZM326.513 400.24C326.491 399.814 326.214 399.483 325.895 399.5C325.576 399.516 325.336 399.875 325.358 400.3C325.38 400.726 325.657 401.057 325.976 401.04C326.295 401.023 326.536 400.665 326.513 400.24ZM280.579 171.138C280.052 170.858 279.95 170.021 280.35 169.269C280.749 168.517 281.501 168.134 282.027 168.414C282.554 168.694 282.656 169.531 282.256 170.283C281.856 171.035 281.105 171.418 280.579 171.138ZM399.351 319.141C398.759 319.754 398.577 320.539 398.945 320.894C399.313 321.249 400.091 321.04 400.682 320.427C401.274 319.814 401.456 319.03 401.088 318.675C400.72 318.319 399.943 318.528 399.351 319.141ZM280.477 320.26C280.696 319.66 281.522 319.409 282.322 319.701C283.123 319.992 283.595 320.715 283.376 321.315C283.158 321.916 282.332 322.166 281.531 321.875C280.73 321.583 280.259 320.861 280.477 320.26ZM472.67 269.623C473.036 270.146 473.663 270.339 474.071 270.054C474.478 269.769 474.511 269.114 474.144 268.59C473.778 268.067 473.15 267.874 472.743 268.159C472.336 268.444 472.303 269.099 472.67 269.623ZM532.788 388.602C532.722 388.399 532.833 388.182 533.036 388.116C533.238 388.05 533.456 388.161 533.521 388.363C533.587 388.566 533.476 388.783 533.274 388.849C533.071 388.915 532.854 388.804 532.788 388.602ZM415.821 158.566C415.983 159.402 416.658 159.975 417.327 159.845C417.996 159.715 418.406 158.932 418.244 158.095C418.081 157.259 417.407 156.687 416.738 156.817C416.069 156.947 415.658 157.73 415.821 158.566ZM349.225 182.891C349.026 182.967 348.803 182.868 348.727 182.669C348.65 182.47 348.75 182.247 348.949 182.171C349.147 182.095 349.37 182.194 349.447 182.393C349.523 182.592 349.424 182.815 349.225 182.891ZM114.63 241.533C114.311 240.743 113.625 240.275 113.099 240.488C112.572 240.701 112.404 241.513 112.723 242.303C113.042 243.093 113.728 243.561 114.254 243.348C114.781 243.135 114.949 242.323 114.63 241.533ZM439.601 198.738C439.724 198.979 439.516 199.332 439.137 199.525C438.757 199.718 438.35 199.679 438.227 199.438C438.104 199.196 438.312 198.844 438.691 198.65C439.071 198.457 439.478 198.496 439.601 198.738ZM311.087 288.844C311.378 288.043 310.965 287.158 310.165 286.866C309.364 286.575 308.479 286.988 308.188 287.788C307.896 288.589 308.309 289.474 309.11 289.765C309.91 290.057 310.795 289.644 311.087 288.844ZM107.477 262.606C107.735 262.726 107.797 263.136 107.617 263.522C107.437 263.908 107.083 264.124 106.825 264.004C106.568 263.883 106.505 263.473 106.685 263.087C106.865 262.701 107.22 262.485 107.477 262.606ZM469.284 369.289C469.784 369.979 470.47 370.334 470.814 370.084C471.159 369.834 471.032 369.072 470.532 368.383C470.031 367.694 469.346 367.338 469.001 367.588C468.656 367.839 468.783 368.6 469.284 369.289ZM222.186 175.937C221.703 175.712 221.604 174.904 221.964 174.132C222.324 173.36 223.007 172.916 223.49 173.141C223.972 173.366 224.071 174.175 223.711 174.947C223.351 175.719 222.668 176.162 222.186 175.937ZM338.388 371.617C338.314 372.036 338.424 372.406 338.634 372.443C338.843 372.48 339.073 372.17 339.147 371.751C339.221 371.331 339.111 370.961 338.901 370.924C338.692 370.887 338.462 371.197 338.388 371.617ZM199.875 376.576C199.401 376.817 198.781 376.552 198.491 375.982C198.201 375.413 198.35 374.756 198.825 374.514C199.299 374.272 199.919 374.538 200.209 375.107C200.499 375.676 200.349 376.334 199.875 376.576ZM189.118 354.801C188.549 355.091 188.322 355.787 188.612 356.357C188.902 356.926 189.599 357.152 190.168 356.862C190.738 356.572 190.964 355.875 190.674 355.306C190.384 354.737 189.687 354.511 189.118 354.801ZM272.226 268.607C272.489 268.879 272.454 269.34 272.148 269.636C271.841 269.932 271.38 269.951 271.117 269.678C270.854 269.406 270.889 268.945 271.195 268.649C271.502 268.353 271.963 268.334 272.226 268.607ZM220.396 216.823C220.573 216.942 220.812 216.896 220.932 216.719C221.051 216.543 221.004 216.303 220.828 216.184C220.651 216.065 220.411 216.111 220.292 216.288C220.173 216.465 220.22 216.704 220.396 216.823ZM375.573 186.403C375.922 186.647 376.337 186.656 376.5 186.424C376.663 186.191 376.512 185.804 376.163 185.56C375.814 185.316 375.399 185.306 375.236 185.539C375.073 185.772 375.224 186.158 375.573 186.403ZM214.73 158.049C215.009 157.853 215.434 157.978 215.678 158.327C215.922 158.675 215.894 159.117 215.615 159.312C215.336 159.508 214.911 159.383 214.667 159.034C214.423 158.685 214.451 158.244 214.73 158.049ZM328.395 240.397C329.18 240.064 329.635 239.37 329.413 238.847C329.192 238.324 328.376 238.17 327.592 238.503C326.808 238.836 326.352 239.53 326.574 240.053C326.796 240.575 327.611 240.729 328.395 240.397ZM351.641 377.404C351.47 377.639 350.913 377.525 350.396 377.15C349.879 376.774 349.598 376.279 349.769 376.044C349.94 375.809 350.497 375.923 351.014 376.299C351.531 376.674 351.812 377.169 351.641 377.404ZM235.672 163.456C235.994 163.735 236.443 163.745 236.676 163.477C236.909 163.209 236.837 162.765 236.516 162.486C236.194 162.206 235.745 162.197 235.512 162.465C235.279 162.733 235.351 163.176 235.672 163.456ZM395.603 258.977C395.986 258.79 396.448 258.949 396.634 259.332C396.821 259.715 396.662 260.176 396.279 260.363C395.896 260.55 395.435 260.391 395.248 260.008C395.061 259.625 395.22 259.163 395.603 258.977Z" fill="url(#paint0_radial_34_3624)"/>
<g style="mix-blend-mode:plus-lighter" filter="url(#filter0_f_34_3624)">
<circle cx="325" cy="300" r="125" fill="#643ADE" fill-opacity="0.5"/>
</g>
<defs>
<filter id="filter0_f_34_3624" x="0" y="-25" width="650" height="650" filterUnits="userSpaceOnUse" color-interpolation-filters="sRGB">
<feFlood flood-opacity="0" result="BackgroundImageFix"/>
<feBlend mode="normal" in="SourceGraphic" in2="BackgroundImageFix" result="shape"/>
<feGaussianBlur stdDeviation="100" result="effect1_foregroundBlur_34_3624"/>
</filter>
<radialGradient id="paint0_radial_34_3624" cx="0" cy="0" r="1" gradientUnits="userSpaceOnUse" gradientTransform="translate(325.235 278.79) rotate(90) scale(122.997 220.764)">
<stop stop-color="white"/>
<stop offset="1" stop-color="white" stop-opacity="0.3"/>
</radialGradient>
</defs>
</svg>
